# xmcd
#
# Track frame offsets: 
#        150
#        23290
#        42761
#        58580
#        79358
#        97324
#        109473
#        125088
#        142755
#        169377
#        181748
#        198976
#        213318
#        227148
#        243175
#        258861
#        277774
#        288856
#
# Disc length: 4153 seconds
#
# Revision: 0
# Processed by: cddbd v1.5.2PL0 Copyright (c) Steve Scherf et al.
# Submitted via: ExactAudioCopy v0.95a5
#
DISCID=f8103712
DTITLE=Pino Daniele Project - Passi D'Autore
DYEAR=2004
DGENRE=Blues
TTITLE0=Arrivera' L'Aurora
TTITLE1=Pigro
TTITLE2=Bella Da Vivere
TTITLE3=La Mia Casa Sei Tu
TTITLE4=Gli Stessi Sguardi
TTITLE5=Nuages Sulle Note
TTITLE6=Dammi Una Seconda Vita
TTITLE7=Deja Vu
TTITLE8=Ali Di Cera
TTITLE9=La Nostra Estate Insieme
TTITLE10=Isola Grande
TTITLE11=Tango Della Buena Suerte
TTITLE12=Concerto Per Noi Due
TTITLE13=Sofia Sulle Note
TTITLE14=??
TTITLE15=???
TTITLE16=????
TTITLE17=?????
EXTD=
EXTT0=
EXTT1=
EXTT2=
EXTT3=
EXTT4=
EXTT5=
EXTT6=
EXTT7=
EXTT8=
EXTT9=
EXTT10=
EXTT11=
EXTT12=
EXTT13=
EXTT14=
EXTT15=
EXTT16=
EXTT17=
PLAYORDER=
